<svg width="54" height="54" viewBox="0 0 54 54" fill="none" xmlns="http://www.w3.org/2000/svg">
<rect width="53.6763" height="53.6763" fill="#25A3E1"/>
<path d="M10.1681 25.0668C10.1681 25.0668 24.858 19.0381 29.9526 16.9152C31.9057 16.0661 38.5288 13.3489 38.5288 13.3489C38.5288 13.3489 41.5857 12.1602 41.3309 15.0471C41.2459 16.236 40.5667 20.3966 39.8874 24.897C38.8684 31.2654 37.7646 38.2281 37.7646 38.2281C37.7646 38.2281 37.5948 40.1812 36.1513 40.5208C34.7078 40.8604 32.3302 39.3321 31.9057 38.9924C31.5659 38.7377 25.5372 34.9166 23.3295 33.0485C22.7351 32.5391 22.0559 31.5202 23.4144 30.3314C26.4713 27.5293 30.1225 24.0479 32.3302 21.8402C33.3492 20.8212 34.368 18.4437 30.1225 21.3306C24.0937 25.4914 18.1499 29.3973 18.1499 29.3973C18.1499 29.3973 16.7913 30.2464 14.2439 29.4822C11.6965 28.7181 8.72454 27.6991 8.72454 27.6991C8.72454 27.6991 6.68677 26.4254 10.1681 25.0668V25.0668Z" fill="white"/>
</svg>
